<?xml version="1.0" encoding="UTF-8"?>
<svg width="80px" height="80px" viewBox="0 0 80 80" version="1.1" xmlns="http://www.w3.org/2000/svg" xmlns:xlink="http://www.w3.org/1999/xlink">
    <!-- Generator: Sketch 43.2 (39069) - http://www.bohemiancoding.com/sketch -->
    <title>ill/dark/recommendations</title>
    <desc>Created with Sketch.</desc>
    <defs></defs>
    <g id="Symbols" stroke="none" stroke-width="1" fill="none" fill-rule="evenodd">
        <g id="ill/dark/recommendations">
            <g id="Group-4">
                <rect id="Rectangle-3" x="0.5" y="0.5" width="80" height="80"></rect>
            </g>
            <path d="M57,31.1 C57,34.0800975 54.9057865,41.9238788 53.9235917,44.0833777 C53.7885813,44.4086298 53.6622969,44.7191022 53.4544346,45.2346126 C53.3505964,45.4922472 53.3505964,45.4922472 53.2461388,45.7510754 C51.8209941,49.2785093 50.9094127,51.0341036 49.3824961,52.6740778 C47.3451679,54.8622559 44.6444045,56 41,56 C34.2465553,56 31.7841751,53.5935017 29.2266223,47.0249512 C29.2200831,47.0081566 28.9533296,46.3213352 28.875681,46.1227848 C28.7417117,45.7802206 28.6290293,45.4966689 28.5186674,45.2257418 C28.3688715,44.8580084 28.2273852,44.5238311 28.0769231,44.1846154 C27.013941,41.6334584 25,34.0537168 25,31.1 C25,22.7327413 32.1617886,16 41,16 C49.8382114,16 57,22.7327413 57,31.1 Z M55,31.1 C55,23.8658762 48.760318,18 41,18 C33.239682,18 27,23.8658762 27,31.1 C27,33.7371923 28.9527257,41.0865416 29.9138115,43.3938615 C30.0641197,43.7320548 30.2136303,44.0851847 30.3708898,44.4712405 C30.4852414,44.7519617 30.6012023,45.0437635 30.7383098,45.3943522 C30.8169691,45.595487 31.0845413,46.2844164 31.0903327,46.2992906 C33.3815308,52.1837635 35.2399426,54 41,54 C46.5514177,54 48.6800476,51.7137597 51.3917654,45.0018763 C51.4955723,44.7446604 51.4955723,44.7446604 51.5995457,44.4866906 C51.8097789,43.9653003 51.9381223,43.649766 52.0896335,43.2861971 C52.9765664,41.3349447 55,33.7562662 55,31.1 Z" id="Shape" fill="#0B3F73" fill-rule="nonzero"></path>
            <polygon id="Shape" fill="#0B3F73" fill-rule="nonzero" points="36 60 46 60 46 58 36 58"></polygon>
            <polygon id="Shape" fill="#0B3F73" fill-rule="nonzero" points="36 64 46 64 46 62 36 62"></polygon>
        </g>
    </g>
</svg>