<?xml version="1.0" encoding="UTF-8"?>
<svg width="80px" height="80px" viewBox="0 0 80 80" version="1.1" xmlns="http://www.w3.org/2000/svg" xmlns:xlink="http://www.w3.org/1999/xlink">
    <!-- Generator: Sketch 43.2 (39069) - http://www.bohemiancoding.com/sketch -->
    <title>ill/dark/cloud</title>
    <desc>Created with Sketch.</desc>
    <defs></defs>
    <g id="Symbols" stroke="none" stroke-width="1" fill="none" fill-rule="evenodd">
        <g id="ill/dark/cloud">
            <g id="Group-4">
                <rect id="Rectangle-3" x="0.5" y="0.5" width="80" height="80"></rect>
            </g>
            <g id="cloud" transform="translate(17.000000, 23.000000)" fill-rule="nonzero" fill="#0B3F73">
                <path d="M48,24 C48,30.0522847 43.0522847,35 37,35 L0,35 L0,34 L0.00221484214,24.933481 C0.337563221,19.9032553 4.47840797,16 9.5,16 L10.0004427,16 L10.0008669,15.0416305 C9.67845306,7.3036977 15.69253,0.824443572 23.4583695,0.500866927 C30.8881926,0.191290962 37.1575778,5.72363826 37.9315105,13.0393284 C43.551809,13.5157785 48,18.2613635 48,24 Z M37,33 C41.9477153,33 46,28.9477153 46,24 C46,19.0522847 41.9477153,15 37,15 L36.040799,15 L36.0008669,14.0416305 C35.7231099,7.37546292 30.1719727,2.22286882 23.5416305,2.49913307 C16.8754629,2.77689006 11.7228688,8.32802735 12,15 L12,18 L9.5,18 C5.5346355,18 2.26331141,21.0836252 2,25 L2,33 L37,33 Z" id="Cloud"></path>
            </g>
        </g>
    </g>
</svg>