<?xml version="1.0" encoding="UTF-8"?>
<svg width="24px" height="24px" viewBox="0 0 24 24" version="1.1" xmlns="http://www.w3.org/2000/svg" xmlns:xlink="http://www.w3.org/1999/xlink">
    <!-- Generator: Sketch 43.2 (39069) - http://www.bohemiancoding.com/sketch -->
    <title>icon/edit</title>
    <desc>Created with Sketch.</desc>
    <defs></defs>
    <g id="Symbols" stroke="none" stroke-width="1" fill="none" fill-rule="evenodd">
        <g id="icon/edit" stroke="#14C6BC" stroke-width="0.5" fill="#14C6BC" fill-rule="nonzero">
            <path d="M13.2768997,2.53301679 L14.081929,4.79644824 C14.6219415,4.95295925 15.140828,5.16871251 15.6229467,5.43624655 L17.7939638,4.4044066 L19.596852,6.20675537 L18.5644726,8.37651395 C18.8320067,8.86222847 19.0482993,9.37751916 19.2036417,9.91995881 L21.4682418,10.722471 L21.4682418,13.2732139 L19.2036417,14.0781533 C19.0482094,14.6194243 18.8319168,15.1372321 18.5644726,15.6204295 L19.596852,17.7901881 L17.7939638,19.5937056 L15.6229467,18.5612363 C15.1397493,18.8293997 14.6219415,19.0451529 14.081929,19.2017538 L13.2768997,21.4651853 L10.7275053,21.4651853 L9.92184665,19.2017538 C9.38120495,19.0451529 8.86348703,18.8293997 8.38019974,18.5612363 L6.20927249,19.5937056 L4.40692372,17.7901881 L5.44002223,15.6204295 C5.17248819,15.1358837 4.95547637,14.6194243 4.80013403,14.0781533 L2.53670257,13.2732139 L2.53670257,10.722471 L4.80013403,9.91995881 C4.95547637,9.37751916 5.17248819,8.86096991 5.44002223,8.37651395 L4.40683382,6.20675537 L6.20918259,4.4044066 L8.38010984,5.43624655 C8.86465569,5.16871251 9.38111505,4.95304915 9.92175675,4.79644824 L10.7274154,2.53301679 L13.2768997,2.53301679 L13.2768997,2.53301679 Z M12.0015283,15.4724588 C13.9184959,15.4724588 15.4730881,13.9178667 15.4730881,12.000899 C15.4730881,10.0839313 13.9184959,8.52817051 12.0015283,8.52817051 C10.0839313,8.52817051 8.52870989,10.0839313 8.52870989,12.000899 C8.52870989,13.9178667 10.0839313,15.4724588 12.0015283,15.4724588 L12.0015283,15.4724588 Z M14.357374,1 L13.2762704,1 L10.7267861,1 L9.6450532,1 L9.28132917,2.01835537 L8.72531505,3.58337556 C8.6052124,3.63021199 8.48492996,3.67947565 8.36653536,3.732515 L6.86749971,3.01747274 L5.88986777,2.55396283 L5.1242134,3.3195273 L3.32141515,5.12061751 L2.55585067,5.88735065 L3.01989997,6.86507249 L3.732515,8.36662526 C3.68064432,8.48492996 3.63138066,8.60332456 3.5851735,8.72288782 L2.0207826,9.28016051 L1,9.64136742 L1,10.7249881 L1,13.2751017 L1,14.3594417 L2.0207826,14.721188 L3.5851735,15.2778314 C3.63138066,15.3960462 3.68064432,15.5169579 3.732515,15.6340939 L3.01989997,17.1343881 L2.55576078,18.1125595 L3.32132525,18.8787532 L5.1243033,20.681102 L5.88995767,21.4454978 L6.86758961,20.981898 L8.36662526,20.2687436 C8.48555924,20.3198052 8.6052124,20.3691587 8.72540495,20.4160851 L9.28141907,21.9817345 L9.6451431,23 L10.7275053,23 L13.2768997,23 L14.3580033,23 L14.7217273,21.9817345 L15.2777415,20.4160851 C15.3985633,20.3692486 15.5182164,20.3198951 15.6364312,20.2687436 L17.1355568,20.981898 L18.1131887,21.4454978 L18.8787532,20.681102 L20.6823605,18.8787532 L21.447925,18.1125595 L20.9831565,17.1343881 L20.2706314,15.6340939 C20.3224122,15.5157892 20.3716758,15.3961361 20.4186022,15.2778314 L21.9829931,14.721188 L23.0036858,14.3594417 L23.0036858,13.2751017 L23.0036858,10.7249881 L23.0036858,9.64136742 L21.9829931,9.28016051 L20.4186022,8.72288782 C20.3717657,8.60332456 20.3225021,8.4836714 20.2706314,8.36662526 L20.9831565,6.86507249 L21.447925,5.88744055 L20.6823605,5.12070741 L18.8786633,3.3195273 L18.1130988,2.55396283 L17.1355568,3.01747274 L15.6364312,3.732515 C15.5175872,3.67956555 15.3985633,3.63021199 15.2777415,3.58337556 L14.7217273,2.01835537 L14.357374,1 L14.357374,1 Z M12.0015283,13.939442 C10.9321113,13.939442 10.0629852,13.0703159 10.0629852,12.0014384 C10.0629852,10.9325608 10.9321113,10.0622661 12.0015283,10.0622661 C13.0697766,10.0622661 13.9389026,10.9326507 13.9389026,12.0014384 C13.9389026,13.0702261 13.0704058,13.939442 12.0015283,13.939442 L12.0015283,13.939442 Z" id="gear"></path>
        </g>
    </g>
</svg>