<?xml version="1.0" encoding="UTF-8"?>
<svg width="48px" height="48px" viewBox="0 0 48 48" version="1.1" xmlns="http://www.w3.org/2000/svg" xmlns:xlink="http://www.w3.org/1999/xlink">
    <!-- Generator: Sketch 43.2 (39069) - http://www.bohemiancoding.com/sketch -->
    <title>Group 3</title>
    <desc>Created with Sketch.</desc>
    <defs></defs>
    <g id="Symbols" stroke="none" stroke-width="1" fill="none" fill-rule="evenodd">
        <g id="ill/dark/info" transform="translate(-16.000000, -16.000000)" fill-rule="nonzero" fill="#0B3F73">
            <g id="Group-3" transform="translate(16.000000, 16.000000)">
                <path d="M24,48 C10.745166,48 0,37.254834 0,24 C0,10.745166 10.745166,0 24,0 C37.254834,0 48,10.745166 48,24 C48,37.254834 37.254834,48 24,48 Z M24,46 C36.1502645,46 46,36.1502645 46,24 C46,11.8497355 36.1502645,2 24,2 C11.8497355,2 2,11.8497355 2,24 C2,36.1502645 11.8497355,46 24,46 Z" id="Oval"></path>
                <g id="Group-2" transform="translate(24.000000, 23.000000) rotate(-180.000000) translate(-24.000000, -23.000000) translate(22.000000, 14.000000)">
                    <polygon id="Shape" points="1 0.0434782609 1 11 3 11 3 0.0434782609"></polygon>
                    <ellipse id="Oval" cx="2" cy="15.6956522" rx="1.57894737" ry="1.56521739"></ellipse>
                </g>
            </g>
        </g>
    </g>
</svg>