<?xml version="1.0" encoding="UTF-8"?>
<svg width="80px" height="80px" viewBox="0 0 80 80" version="1.1" xmlns="http://www.w3.org/2000/svg" xmlns:xlink="http://www.w3.org/1999/xlink">
    <!-- Generator: Sketch 43.2 (39069) - http://www.bohemiancoding.com/sketch -->
    <title>ill/dark/info</title>
    <desc>Created with Sketch.</desc>
    <defs></defs>
    <g id="Symbols" stroke="none" stroke-width="1" fill="none" fill-rule="evenodd">
        <g id="ill/dark/info">
            <g id="Group">
                <rect id="Rectangle" x="0" y="0" width="80" height="80"></rect>
            </g>
            <path d="M40,64 C26.745166,64 16,53.254834 16,40 C16,26.745166 26.745166,16 40,16 C53.254834,16 64,26.745166 64,40 C64,53.254834 53.254834,64 40,64 Z M40,62 C52.1502645,62 62,52.1502645 62,40 C62,27.8497355 52.1502645,18 40,18 C27.8497355,18 18,27.8497355 18,40 C18,52.1502645 27.8497355,62 40,62 Z" id="Oval" fill="#0B3F73" fill-rule="nonzero"></path>
            <polygon id="Shape" fill="#0B3F73" fill-rule="nonzero" points="41 47.9565217 41 37 39 37 39 47.9565217"></polygon>
            <ellipse id="Oval" fill="#0B3F73" fill-rule="nonzero" transform="translate(40.000000, 32.304348) rotate(-180.000000) translate(-40.000000, -32.304348) " cx="40" cy="32.3043478" rx="1.57894737" ry="1.56521739"></ellipse>
        </g>
    </g>
</svg>