<?xml version="1.0" encoding="UTF-8"?>
<svg width="32px" height="48px" viewBox="0 0 32 48" version="1.1" xmlns="http://www.w3.org/2000/svg" xmlns:xlink="http://www.w3.org/1999/xlink">
    <!-- Generator: Sketch 43.2 (39069) - http://www.bohemiancoding.com/sketch -->
    <title>lightbulb</title>
    <desc>Created with Sketch.</desc>
    <defs></defs>
    <g id="Symbols" stroke="none" stroke-width="1" fill="none" fill-rule="evenodd">
        <g id="ill/dark/recommendations" transform="translate(-25.000000, -16.000000)" fill-rule="nonzero" fill="#0B3F73">
            <g id="lightbulb" transform="translate(25.000000, 16.000000)">
                <path d="M32,15.1 C32,18.0800975 29.9057865,25.9238788 28.9235917,28.0833777 C28.7885813,28.4086298 28.6622969,28.7191022 28.4544346,29.2346126 C28.3505964,29.4922472 28.3505964,29.4922472 28.2461388,29.7510754 C26.8209941,33.2785093 25.9094127,35.0341036 24.3824961,36.6740778 C22.3451679,38.8622559 19.6444045,40 16,40 C9.24655535,40 6.78417512,37.5935017 4.22662227,31.0249512 C4.22008309,31.0081566 3.95332959,30.3213352 3.87568096,30.1227848 C3.74171175,29.7802206 3.62902934,29.4966689 3.51866742,29.2257418 C3.36887153,28.8580084 3.22738517,28.5238311 3.07692308,28.1846154 C2.01394099,25.6334584 0,18.0537168 0,15.1 C0,6.73274134 7.16178859,0 16,0 C24.8382114,0 32,6.73274134 32,15.1 Z M30,15.1 C30,7.86587617 23.760318,2 16,2 C8.239682,2 2,7.86587617 2,15.1 C2,17.7371923 3.95272568,25.0865416 4.91381155,27.3938615 C5.06411968,27.7320548 5.21363033,28.0851847 5.37088983,28.4712405 C5.48524138,28.7519617 5.60120232,29.0437635 5.73830976,29.3943522 C5.81696908,29.595487 6.08454126,30.2844164 6.09033275,30.2992906 C8.38153084,36.1837635 10.2399426,38 16,38 C21.5514177,38 23.6800476,35.7137597 26.3917654,29.0018763 C26.4955723,28.7446604 26.4955723,28.7446604 26.5995457,28.4866906 C26.8097789,27.9653003 26.9381223,27.649766 27.0896335,27.2861971 C27.9765664,25.3349447 30,17.7562662 30,15.1 Z" id="Shape"></path>
                <polygon id="Shape" points="11 44 21 44 21 42 11 42"></polygon>
                <polygon id="Shape" points="11 48 21 48 21 46 11 46"></polygon>
            </g>
        </g>
    </g>
</svg>