<?xml version="1.0" encoding="UTF-8"?>
<svg width="48px" height="48px" viewBox="0 0 48 48" version="1.1" xmlns="http://www.w3.org/2000/svg" xmlns:xlink="http://www.w3.org/1999/xlink">
    <!-- Generator: Sketch 43.2 (39069) - http://www.bohemiancoding.com/sketch -->
    <title>Group 2</title>
    <desc>Created with Sketch.</desc>
    <defs></defs>
    <g id="Symbols" stroke="none" stroke-width="1" fill="none" fill-rule="evenodd">
        <g id="ill/dark/URL" transform="translate(-16.000000, -16.000000)" fill-rule="nonzero" fill="#0B3F73">
            <g id="Group">
                <g id="Group-2" transform="translate(16.000000, 15.000000)">
                    <path d="M20.6400127,27.280017 C18.0770274,23.8625522 18.3852187,19.0874892 21.3662485,16.0278453 L31.7135086,5.49064648 C33.2690869,3.89420384 35.3998694,2.99537567 37.625,2.99537567 C39.8501306,2.99537567 41.9809131,3.89420384 43.5337838,5.48787845 C46.8149649,8.85187599 46.8149649,14.218124 43.5341364,17.5817598 L36.5954974,25.0913941 C36.2207137,25.4970487 36.2457395,26.1297189 36.6513941,26.5045026 C37.0570487,26.8792863 37.6897189,26.8542605 38.0645026,26.4486059 L44.9845026,18.9586059 C49.0043892,14.8377831 49.0043892,8.23221687 44.9658636,4.09175983 C43.036892,2.11210158 40.3895562,0.995375667 37.625,0.995375667 C34.8604438,0.995375667 32.213108,2.11210158 30.2837838,4.09212155 L19.9364914,14.6293535 C16.2650562,18.3975988 15.8857712,24.2741757 19.0399873,28.479983 C19.3713487,28.9218179 19.9981482,29.0113742 20.439983,28.6800127 C20.8818179,28.3486513 20.9713742,27.7218518 20.6400127,27.280017 Z" id="Shape"></path>
                    <path d="M26.2821228,22.2461698 C29.539701,25.6053231 29.539701,30.9446769 26.2821228,34.3038302 L16.2855843,44.5102785 C14.7309131,46.1057962 12.6001306,47.0046243 10.375,47.0046243 C8.14986941,47.0046243 6.0190869,46.1057962 4.46621622,44.5121215 C1.1850351,41.148124 1.1850351,35.781876 4.46586358,32.4182402 L11.1344824,25.4092933 C11.5151686,25.0091727 11.4994139,24.3762037 11.0992933,23.9955176 C10.6991727,23.6148314 10.0662037,23.6305861 9.68551758,24.0307067 L3.02551758,31.0307067 C-1.00438917,35.1622169 -1.00438917,41.7677831 3.03413642,45.9082402 C4.96310797,47.8878984 7.61044382,49.0046243 10.375,49.0046243 C13.1395562,49.0046243 15.786892,47.8878984 17.7162162,45.9078785 L27.7144157,35.6997215 C31.7277828,31.5612304 31.7277828,24.9887696 27.7178772,20.8538302 C27.3333932,20.4573576 26.7003028,20.4476389 26.3038302,20.8321228 C25.9073576,21.2166068 25.8976389,21.8496972 26.2821228,22.2461698 Z" id="Shape"></path>
                </g>
            </g>
        </g>
    </g>
</svg>