<?xml version="1.0" encoding="UTF-8"?>
<svg width="58px" height="57px" viewBox="0 0 58 57" version="1.1" xmlns="http://www.w3.org/2000/svg" xmlns:xlink="http://www.w3.org/1999/xlink">
    <!-- Generator: Sketch 43.2 (39069) - http://www.bohemiancoding.com/sketch -->
    <title>Group</title>
    <desc>Created with Sketch.</desc>
    <defs></defs>
    <g id="Symbols" stroke="none" stroke-width="1" fill="none" fill-rule="evenodd">
        <g id="ill/dark/money" transform="translate(-11.000000, -12.000000)" fill="#0B3F73">
            <g id="Group-10">
                <g id="Group" transform="translate(10.230769, 12.000000)">
                    <path d="M47.000001,44.3076923 L50.6923077,44.3076923 C67.9230769,44.3076923 53.1538462,14.7692308 43.3076923,9.84615385 L33.4615385,9.84615385 C31.6383114,10.7577674 29.6462794,12.5134051 27.7198767,14.7692308 L31.0513497,14.7692308 C32.0995754,13.7130019 33.1301482,12.8678706 34.0902777,12.3046709 L42.6965103,12.3149964 C46.8518055,14.7651107 52.3181573,22.4784051 54.8277265,29.7282722 C57.571843,37.6557194 56.2694107,41.8461538 50.6923077,41.8461538 L47.0000007,41.8461538 L47.000001,44.3076923 L47.000001,44.3076923 Z" id="Shape"></path>
                    <path d="M33.0724153,5.08505433 C32.2605519,3.4613279 32.8769676,2.46153846 34.7068778,2.46153846 L42.062353,2.46153846 C43.8662097,2.46153846 44.497407,3.48387153 43.6968155,5.08505433 L40.9760896,10.5265063 L43.1777566,11.6273398 L45.8984825,6.18588778 C47.5171446,2.94856386 45.6966757,0 42.062353,0 L34.7068778,0 C31.0456687,0 29.241186,2.92676337 30.8707483,6.18588778 L33.5914742,11.6273398 L35.7931412,10.5265063 L33.0724153,5.08505433 L33.0724153,5.08505433 Z" id="Shape"></path>
                    <path d="M25.4688234,14.7692308 L16.2307692,14.7692308 C6.38461538,19.6923077 -8.38461538,49.2307692 8.84615385,49.2307692 L10.7203863,49.2307692 C10.6833903,48.491137 10.7324566,47.6701696 10.8668991,46.7692308 L8.84615385,46.7692308 C3.26905088,46.7692308 1.96661858,42.5787963 4.71073494,34.6513492 C7.22384039,27.3912667 12.7020666,19.6664501 16.8595084,17.2277478 L23.1511112,17.2352963 C22.4560583,15.7046308 23.0907202,14.7692308 24.8607239,14.7692308 L25.4688234,14.7692308 L25.4688234,14.7692308 Z" id="Shape"></path>
                    <path d="M24.0442993,14.8516252 L26.4660463,10.0081312 C27.2666378,8.40694846 26.6354405,7.38461538 24.8315838,7.38461538 L17.4761084,7.38461538 C15.6461984,7.38461538 15.0297827,8.38440482 15.8416459,10.0081312 L18.5623719,15.4495833 L16.360705,16.5504167 L13.639979,11.1089647 C12.0104168,7.8498403 13.8148994,4.92307692 17.4761084,4.92307692 L24.8315838,4.92307692 C28.4659065,4.92307692 30.2863754,7.87164079 28.6677132,11.1089647 L26.8375803,14.7692308 L24.8607239,14.7692308 C24.5541957,14.7692308 24.2817177,14.7972844 24.0442993,14.8516252 L24.0442993,14.8516252 Z" id="Shape"></path>
                    <path d="M33.4615385,22.1538462 C43.3076923,27.0769231 58.0769231,56.6153846 40.8461538,56.6153846 L16.2307692,56.6153846 C-1,56.6153846 13.7692308,27.0769231 23.6153846,22.1538462 L33.4615385,22.1538462 L33.4615385,22.1538462 Z M24.2441238,24.6123632 C20.0866819,27.0510654 14.6084558,34.7758821 12.0953503,42.0359646 C9.35123397,49.9634117 10.6536663,54.1538462 16.2307692,54.1538462 L40.8461538,54.1538462 C46.4232569,54.1538462 47.7256891,49.9634117 44.9815727,42.0359646 C42.4720034,34.7860975 37.0056517,27.072803 32.8503564,24.6226887 L24.2441238,24.6123632 L24.2441238,24.6123632 Z" id="Shape"></path>
                    <path d="M23.2262613,17.3927466 C22.4143981,15.7690202 23.0308137,14.7692308 24.8607239,14.7692308 L32.2161991,14.7692308 C34.0200559,14.7692308 34.6512532,15.7915638 33.8506617,17.3927466 L31.1299358,22.8341986 L33.3316027,23.9350321 L36.0523286,18.4935801 C37.6709908,15.2562562 35.8505218,12.3076923 32.2161991,12.3076923 L24.8607239,12.3076923 C21.1995148,12.3076923 19.3950322,15.2344557 21.0245944,18.4935801 L23.7453204,23.9350321 L25.9469873,22.8341986 L23.2262613,17.3927466 L23.2262613,17.3927466 Z" id="Shape"></path>
                    <path d="M29.5296167,32.3480795 L29.5296167,30.5799549 L27.5217434,30.5799549 L27.5217434,32.4429254 C25.5449195,32.8919453 24.2262831,34.4017704 24.2262831,36.2308446 C24.2262831,40.5533496 31.0387103,39.89601 31.0387103,42.9436749 C31.0387103,44.2782731 29.9232251,45.0152901 28.6085462,45.0152901 C26.5170115,45.0152901 25.0230582,43.5014173 25.0230582,43.5014173 L23.9075731,44.9953708 C23.9075731,44.9953708 25.1927488,46.4182438 27.5217434,46.7699702 L27.5217434,48.6508143 L29.5296167,48.6508143 L29.5296167,46.7718674 C31.737293,46.409176 33.0306481,44.7928186 33.0306481,42.8839168 C33.0306481,38.3223793 26.2182209,39.0992349 26.2182209,36.1910058 C26.2182209,35.0755207 27.273948,34.1393098 28.7679013,34.1393098 C30.5606452,34.1393098 31.8554048,35.354392 31.8554048,35.354392 L32.7517768,33.721003 C32.7517768,33.721003 31.6440966,32.5812161 29.5296167,32.3480795 L29.5296167,32.3480795 Z" id="Shape"></path>
                </g>
            </g>
        </g>
    </g>
</svg>