<?xml version="1.0" encoding="UTF-8"?>
<svg width="18px" height="4px" viewBox="0 0 18 4" version="1.1" xmlns="http://www.w3.org/2000/svg" xmlns:xlink="http://www.w3.org/1999/xlink">
    <!-- Generator: Sketch 43.2 (39069) - http://www.bohemiancoding.com/sketch -->
    <title>icon/dark/more actions</title>
    <desc>Created with Sketch.</desc>
    <defs></defs>
    <g id="Symbols" stroke="none" stroke-width="1" fill="none" fill-rule="evenodd">
        <g id="module/row/zero-state---you" transform="translate(-1121.000000, -33.000000)">
            <g id="module/row-people---default">
                <g id="Group-2" transform="translate(40.000000, 12.000000)">
                    <g id="icon/dark/more-actions" transform="translate(1078.000000, 11.000000)">
                        <polygon id="Shape" transform="translate(12.000000, 12.000000) scale(-1, -1) rotate(-90.000000) translate(-12.000000, -12.000000) " points="0 0 24 0 24 24 0 24"></polygon>
                        <path d="M12,7 C13.1,7 14,6.1 14,5 C14,3.9 13.1,3 12,3 C10.9,3 10,3.9 10,5 C10,6.1 10.9,7 12,7 L12,7 Z M12,10 C10.9,10 10,10.9 10,12 C10,13.1 10.9,14 12,14 C13.1,14 14,13.1 14,12 C14,10.9 13.1,10 12,10 L12,10 Z M12,17 C10.9,17 10,17.9 10,19 C10,20.1 10.9,21 12,21 C13.1,21 14,20.1 14,19 C14,17.9 13.1,17 12,17 L12,17 Z" id="Shape" fill="#0D1A31" transform="translate(12.000000, 12.000000) scale(-1, -1) rotate(-90.000000) translate(-12.000000, -12.000000) "></path>
                    </g>
                </g>
            </g>
        </g>
    </g>
</svg>