<?xml version="1.0" encoding="UTF-8"?>
<svg width="18px" height="18px" viewBox="0 0 18 18" version="1.1" xmlns="http://www.w3.org/2000/svg" xmlns:xlink="http://www.w3.org/1999/xlink">
    <!-- Generator: Sketch 43.2 (39069) - http://www.bohemiancoding.com/sketch -->
    <title>search</title>
    <desc>Created with Sketch.</desc>
    <defs></defs>
    <g id="Symbols" stroke="none" stroke-width="1" fill="none" fill-rule="evenodd">
        <g id="header/cloud" transform="translate(-1072.000000, -42.000000)" fill="#000000">
            <g id="search-support" transform="translate(1062.000000, 30.000000)">
                <path d="M27.7789147,28.7215773 L21.623992,22.5541758 C22.4984671,21.4416438 23.0432143,20.0569781 23.0432143,18.532886 C23.0432143,14.9303556 20.1183781,12 16.5216071,12 C12.9255561,12 10,14.9313155 10,18.5338459 C10,22.1361364 12.9248362,25.0684118 16.5216071,25.0684118 C18.058898,25.0684118 19.4555624,24.5107059 20.5712142,23.6153528 L26.7234971,29.7798746 C26.868683,29.9250605 27.0609044,29.9992133 27.2512059,29.9992133 C27.4415074,29.9992133 27.6334888,29.9260204 27.7789147,29.7798746 C28.0714463,29.4863831 28.0714463,29.0138689 27.7789147,28.7215773 M16.5216071,23.5733569 C13.7496361,23.5733569 11.494335,21.3132562 11.494335,18.5338459 C11.494335,15.7570754 13.7496361,13.4969747 16.5216071,13.4969747 C19.2935781,13.4969747 21.5488793,15.7570754 21.5488793,18.5338459 C21.5488793,21.3122963 19.2926182,23.5733569 16.5216071,23.5733569" id="search"></path>
            </g>
        </g>
    </g>
</svg>