<?xml version="1.0" encoding="UTF-8"?>
<svg width="49px" height="32px" viewBox="0 0 49 32" version="1.1" xmlns="http://www.w3.org/2000/svg" xmlns:xlink="http://www.w3.org/1999/xlink">
    <!-- Generator: Sketch 43.2 (39069) - http://www.bohemiancoding.com/sketch -->
    <title>Play Screen</title>
    <desc>Created with Sketch.</desc>
    <defs></defs>
    <g id="Symbols" stroke="none" stroke-width="1" fill="none" fill-rule="evenodd">
        <g id="ill/dark/start" transform="translate(-16.000000, -24.000000)" fill="#003778">
            <g id="Group-4">
                <g id="Play-Screen" transform="translate(16.000000, 24.000000)">
                    <path d="M3.49665539,2.1356881 C2.74999354,2.1356881 2.14253984,2.7411992 2.14253984,3.48547325 L2.14253984,28.5145267 C2.14253984,29.2588008 2.74999354,29.8655734 3.49665539,29.8655734 L45.5033446,29.8655734 C46.251272,29.8655734 46.8587257,29.2588008 46.8587257,28.5145267 L46.8587257,3.48547325 C46.8587257,2.7411992 46.251272,2.1356881 45.5033446,2.1356881 L3.49665539,2.1356881 Z M45.5033446,32 L3.49665539,32 C1.56798988,32 0,30.4370245 0,28.5145267 L0,3.48547325 C0,1.564237 1.56798988,0 3.49665539,0 L45.5033446,0 C47.4320101,0 49,1.564237 49,3.48547325 L49,28.5145267 C49,30.4370245 47.4320101,32 45.5033446,32 L45.5033446,32 Z" id="Fill-1"></path>
                    <path d="M22.6553973,9.09582793 C22.4301527,9.09582793 22.202334,9.14786713 21.9873863,9.25194554 C21.4815514,9.49727322 21.1790801,9.97058217 21.1790801,10.5169938 L21.1790801,21.4823976 C21.1790801,22.0288092 21.4815514,22.5021182 21.9873863,22.7474459 C22.4945083,22.9940126 23.0698473,22.9469295 23.5254848,22.6210649 L31.2249871,17.1383631 C31.603398,16.8682548 31.8209199,16.4531802 31.8209199,15.9996957 C31.8209199,15.5462112 31.603398,15.1298976 31.2249871,14.8610284 L23.5254848,9.37832646 C23.262914,9.19123313 22.9617299,9.09582793 22.6553973,9.09582793 M22.6541102,25 C22.0942166,25 21.5304616,24.8748581 21.0066072,24.6196182 C19.7684057,24.0199283 19,22.8168315 19,21.4823976 L19,10.5169938 C19,9.18255993 19.7684057,7.97946309 21.0066072,7.37853418 C22.2448086,6.7788443 23.7069676,6.89779106 24.8216063,7.69200844 L32.5198215,13.1747103 C33.4607002,13.8437858 34,14.8734186 34,15.9996957 C34,17.1259728 33.4607002,18.1556056 32.5198215,18.8246811 L24.8216063,24.307383 C24.1780505,24.7658236 23.4186545,24.998761 22.6541102,25" id="Fill-4"></path>
                </g>
            </g>
        </g>
    </g>
</svg>