<?xml version="1.0" encoding="UTF-8"?>
<svg width="60px" height="50px" viewBox="0 0 60 50" version="1.1" xmlns="http://www.w3.org/2000/svg" xmlns:xlink="http://www.w3.org/1999/xlink">
    <!-- Generator: Sketch 43.2 (39069) - http://www.bohemiancoding.com/sketch -->
    <title>Shape</title>
    <desc>Created with Sketch.</desc>
    <defs></defs>
    <g id="Symbols" stroke="none" stroke-width="1" fill="none" fill-rule="evenodd">
        <g id="ill/dark/support" transform="translate(-10.000000, -15.000000)" fill="#0B3F73">
            <g id="Group">
                <path d="M69.9958446,46.6060583 C69.9958446,51.6160206 66.9032753,56.0693204 62.3262727,57.924862 L62.3262727,62.6255673 C62.3262727,63.2440812 61.9551644,63.7388923 61.3985019,63.9862978 C61.2129477,64.0481492 61.0273936,64.1100006 60.8418394,64.1100006 C60.4707311,64.1100006 60.0996228,63.9862978 59.7903659,63.6770409 L54.9041064,58.7907814 L47.6674942,58.7907814 C43.0286402,58.7907814 38.8845973,56.2548746 36.7816502,52.1108317 C36.5342447,51.677872 36.7197988,51.1212095 37.2146099,50.873804 C37.6475696,50.6263984 38.2042321,50.8119526 38.4516376,51.3067637 C40.2453278,54.8322927 43.7708568,56.9970912 47.6674942,56.9970912 L55.2752147,56.9970912 C55.5226202,56.9970912 55.7700258,57.120794 55.9555799,57.2444967 L60.4707311,61.7596479 L60.4707311,57.3063481 C60.4707311,56.9352398 60.7181367,56.5641315 61.089245,56.4404287 C65.2951392,55.0178468 68.140303,51.1212095 68.140303,46.6679097 C68.140303,41.7197988 64.614774,37.4520532 59.7285145,36.5242824 C59.2337034,36.4005796 58.8625951,35.9676199 58.9862978,35.4728088 C59.1100006,34.9779977 59.5429603,34.6068894 60.0377714,34.7305922 C65.8518017,35.7202144 69.9958446,40.7301766 69.9958446,46.6060583 Z M10,30.7102521 C10,22.051058 17.051058,15 25.7102521,15 L39.1320029,15 C47.7911969,15 54.842255,22.051058 54.842255,30.7102521 C54.842255,39.3694461 47.7911969,46.4205042 39.1320029,46.4205042 L29.4213353,46.4205042 L22.9269397,52.9148997 C22.6176828,53.2241566 22.1847231,53.4097108 21.7517634,53.4097108 C20.8239926,53.4097108 20.0817759,52.6674942 20.0817759,51.7397234 L20.0817759,45.3690306 C14.0203401,43.0186779 10,37.266499 10,30.7102521 Z M11.8555416,30.7102521 C11.8555416,36.6479852 15.6903275,41.9672044 21.3188037,43.822746 C21.689912,43.9464487 21.9373175,44.317557 21.9373175,44.6886654 L21.9373175,51.3067637 L28.3698617,44.8742195 C28.5554158,44.6886654 28.8028214,44.626814 29.0502269,44.626814 L39.0701515,44.626814 C46.677872,44.626814 52.924862,38.4416754 52.924862,30.7721035 C52.924862,23.164383 46.7397234,16.917393 39.0701515,16.917393 L25.6484007,16.917393 C18.0406802,16.8555416 11.8555416,23.0406802 11.8555416,30.7102521 Z M31.7098365,37.266499 C31.5242824,37.4520532 31.462431,37.6994587 31.462431,37.9468643 C31.462431,38.1942698 31.5861338,38.4416754 31.7098365,38.6272295 C31.8953907,38.8127837 32.1427962,38.8746351 32.3902018,38.8746351 C32.6376073,38.8746351 32.8850129,38.7509323 33.070567,38.6272295 C33.2561212,38.4416754 33.3179726,38.1942698 33.3179726,37.9468643 C33.3179726,37.6994587 33.1942698,37.4520532 33.070567,37.266499 C32.6994587,36.9572421 32.0809449,36.9572421 31.7098365,37.266499 Z M29.1120783,27.6795342 C29.6068894,27.6795342 30.0398491,27.2465745 30.0398491,26.7517634 C30.0398491,26.0095467 30.349106,25.3910329 30.9057685,24.8962218 C31.462431,24.4632621 32.2046476,24.2777079 32.8850129,24.4014107 C33.7509323,24.5869649 34.4931489,25.3291815 34.6787031,26.1951009 C34.8642572,27.1228717 34.5550003,27.9887911 33.8127837,28.5454536 C32.3283504,29.7206299 31.462431,31.3906173 31.462431,33.1843075 C31.462431,33.6791186 31.8953907,34.1120783 32.3902018,34.1120783 C32.8850129,34.1120783 33.3179726,33.6791186 33.3179726,33.1843075 C33.3179726,32.0091312 33.9364864,30.8339549 34.98796,29.9680355 C36.2868391,28.9784133 36.8435016,27.3702772 36.5342447,25.7621412 C36.2249877,24.1540052 34.9261086,22.855126 33.3179726,22.5458691 C32.0190935,22.2984636 30.7820657,22.6077205 29.7924436,23.4117885 C28.8028214,24.2158565 28.2461589,25.3910329 28.2461589,26.689912 C28.1843075,27.2465745 28.5554158,27.6795342 29.1120783,27.6795342 Z" id="Shape"></path>
            </g>
        </g>
    </g>
</svg>