<?xml version="1.0" encoding="UTF-8" standalone="no"?>
<svg width="58px" height="42px" viewBox="0 0 58 42" version="1.1" xmlns="http://www.w3.org/2000/svg" xmlns:xlink="http://www.w3.org/1999/xlink">
    <!-- Generator: Sketch 41.2 (35397) - http://www.bohemiancoding.com/sketch -->
    <title>ill - team - blue</title>
    <desc>Created with Sketch.</desc>
    <defs></defs>
    <g id="Page-Designs" stroke="none" stroke-width="1" fill="none" fill-rule="evenodd">
        <g id="Company" transform="translate(-651.000000, -3686.000000)" fill="#1F81CC">
            <g id="Group-3" transform="translate(-160.000000, 0.000000)">
                <g id="Investors" transform="translate(160.000000, 2997.000000)">
                    <g id="Group" transform="translate(200.000000, 610.000000)">
                        <g id="Group-20" transform="translate(440.000000, 60.000000)">
                            <g id="ill---team---blue">
                                <g id="Group-22" transform="translate(11.000000, 19.000000)">
                                    <g id="Group-21">
                                        <path d="M41.2655645,6 L41.0025171,6 C36.7796893,6 33.2262918,9.38256873 33.4275486,13.4568075 C33.4263308,13.7672497 33.5363238,14.5259875 33.7364544,15.6856179 C33.7642494,15.8460728 33.7642494,15.8460728 33.7922169,16.0053618 C33.8696055,16.444789 33.9524164,16.8986498 34.0352176,17.341555 C34.0849149,17.6073868 34.123627,17.8108177 34.1458895,17.9262362 C34.7843094,21.7105546 37.4154642,24.4516129 41.0025171,24.4516129 C44.5588961,24.4516129 47.1016735,21.7731903 47.8584041,17.9300361 C47.8806078,17.8176645 47.9193898,17.6183116 47.96916,17.3572095 C48.0520701,16.9222504 48.1349894,16.4749601 48.2124901,16.0396798 C48.2350432,15.9130111 48.2568504,15.7889403 48.2778311,15.6678247 C48.4687765,14.5655546 48.5760972,13.8129466 48.5786565,13.4216309 C48.6742316,9.39637708 45.3266935,6 41.2655645,6 Z M46.3071806,15.3264504 C46.2867464,15.444411 46.2654772,15.5654211 46.2434568,15.6890978 C46.1675131,16.115633 46.0860279,16.5551875 46.0045333,16.9827205 C45.9556607,17.2391136 45.9177205,17.4341394 45.8962107,17.5430002 C45.3076659,20.5319999 43.4852692,22.4516129 41.0025171,22.4516129 C38.4901572,22.4516129 36.6064678,20.4892416 36.1138455,17.5704212 C36.0881131,17.4355745 36.050103,17.2358326 36.0011575,16.9740222 C35.9195541,16.5375238 35.8379603,16.0903341 35.7619046,15.6584752 C35.7344937,15.5023556 35.7344937,15.5023556 35.7073193,15.3454833 C35.5343104,14.3430061 35.4263308,13.5981567 35.4263308,13.4074703 C35.2825956,10.4730134 37.8805028,8 41.0025171,8 L41.2655645,8 C44.2104147,8 46.6524834,10.4804722 46.5790237,13.3821622 C46.5787034,13.6286434 46.4758071,14.3530208 46.3071806,15.3264504 Z" id="Shape"></path>
                                        <path d="M20.3124289,0 L20.0029613,0 C15.1320592,0 11.0358995,3.89923774 11.2674893,8.58753758 C11.2662715,8.94655026 11.3954974,9.83795755 11.6285521,11.1883621 C11.6611973,11.3768165 11.6611973,11.3768165 11.6940511,11.5639356 C11.7849789,12.0802411 11.8822962,12.6136063 11.9796037,13.134106 C12.0380047,13.4464944 12.0834864,13.6854994 12.1096173,13.820973 C12.8482015,18.1987719 15.8777249,21.3548387 20.0029613,21.3548387 C24.0922048,21.3548387 27.0201446,18.2707071 27.8955647,13.8247729 C27.9216367,13.6928237 27.9671883,13.4586727 28.0256623,13.1519092 C28.1230787,12.6408479 28.2205044,12.1153066 28.3115443,11.6039837 C28.3380303,11.4552257 28.3636383,11.3095301 28.3882733,11.1673196 C28.6111251,9.88086357 28.7370008,8.99766831 28.7396097,8.55218035 C28.8505592,3.9153698 24.9920012,0 20.3124289,0 Z M26.4176228,10.8259453 C26.3935343,10.9650008 26.3684642,11.1076357 26.3425109,11.2534017 C26.2530281,11.7559795 26.1570365,12.273785 26.0610356,12.7774202 C26.0034593,13.0794746 25.9587495,13.3092985 25.9333714,13.4377371 C25.2261371,17.0295167 23.0185779,19.3548387 20.0029613,19.3548387 C16.9524179,19.3548387 14.6703599,16.977459 14.0775732,13.4651581 C14.0479725,13.3102561 14.0031928,13.0749402 13.9455435,12.7665732 C13.8494338,12.2524803 13.7533338,11.7257861 13.6637388,11.2170491 C13.6314416,11.0330993 13.6314416,11.0330993 13.599417,10.8482275 C13.393484,9.65497615 13.2662715,8.77745728 13.2662715,8.53820034 C13.0922033,4.98968243 16.2328727,2 20.0029613,2 L20.3124289,2 C23.8757844,2 26.8289152,4.99957123 26.7399714,8.51289228 C26.7396511,8.81305037 26.6181817,9.66817909 26.4176228,10.8259453 Z" id="Shape"></path>
                                        <g id="Group-2" transform="translate(0.000000, 26.000000)">
                                            <path d="M3.26678826,8.13563193 C3.44774818,6.4072552 5.34928928,4.73283697 7.81908468,4.26324586 L20.0010292,2.53599937 L32.3802745,4.27891232 C35.1900068,4.86182792 36.8139981,6.35495911 36.9400171,8.43472574 L37.2429932,14 L2.807809,14 L3.26678826,8.13563193 Z M0.729533911,14.9219728 L0.64516129,16 L39.3548387,16 L38.9367077,8.31988102 C38.7492814,5.22636335 36.4046103,3.07062429 32.722132,2.30938393 L20.1399551,0.535833747 L20,0.51612903 L7.49182634,2.2907607 C4.17832539,2.91964672 1.56041966,5.22486592 1.27525309,7.95366831 L0.729533911,14.9219728 Z" id="Combined-Shape"></path>
                                            <path d="M51.4814079,6.33414556 C53.7254156,6.80042033 55.0015413,7.96993886 55.0995638,9.58766146 L55.339769,14 L25.629711,14 L25.629711,16 L57.4516129,16 L57.0962543,9.47281717 C56.9367255,6.83970613 54.9393424,5.00918393 51.8233898,4.36464288 L41.1399473,2.8584133 L40.9784609,2.83567712 L35.7570418,3.80437534 L36.1218644,5.77081997 L41.0225975,4.86161668 L51.4814079,6.33414556 Z" id="Combined-Shape"></path>
                                        </g>
                                    </g>
                                </g>
                            </g>
                        </g>
                    </g>
                </g>
            </g>
        </g>
    </g>
</svg>