<?xml version="1.0" encoding="UTF-8"?>
<svg width="80px" height="80px" viewBox="0 0 80 80" version="1.1" xmlns="http://www.w3.org/2000/svg" xmlns:xlink="http://www.w3.org/1999/xlink">
    <!-- Generator: Sketch 43.2 (39069) - http://www.bohemiancoding.com/sketch -->
    <title>ill/dark/tools</title>
    <desc>Created with Sketch.</desc>
    <defs></defs>
    <g id="Symbols" stroke="none" stroke-width="1" fill="none" fill-rule="evenodd">
        <g id="ill/dark/tools">
            <g id="Group-4">
                <rect id="Rectangle-3" x="0.5" y="0.5" width="80" height="80"></rect>
                <path d="M63.9104165,36.9566664 L60.9052113,39.9665893 C60.8057618,40.0661949 60.6731624,40.1211498 60.5325613,40.1211498 C60.3919602,40.1211498 60.2593609,40.0661949 60.1587682,39.9665893 L58.2497942,38.0534736 C58.6144425,37.1936591 58.5024189,36.1655455 57.8908614,35.4213652 C57.0255361,34.3692088 56.0527595,34.133361 55.3886194,34.121912 L55.3326076,34.121912 C53.5882398,34.121912 52.1307896,35.5450137 51.7524241,35.9480159 C51.7295621,35.9674791 51.7089863,35.9880871 51.6884106,36.0098401 L46.9491254,41.0691209 L42.532194,36.9360583 L47.7332908,32.0485113 C47.7390063,32.0439318 47.7447218,32.0382073 47.7504373,32.0324828 C48.526601,31.2676945 48.9221129,30.2853766 48.8935355,29.1920041 C48.8569563,27.7551637 48.108227,26.1122427 46.6690664,24.3078918 C45.7180087,23.1160585 44.7840975,22.257389 44.6217775,22.1108427 L42.5927782,20.0786582 C47.0211406,19.2039601 50.2709688,22.5413224 50.4195716,22.6970278 C50.4252871,22.7038971 50.4321456,22.7107665 50.4390042,22.7164909 L57.9297267,30.2189728 C57.4164756,31.7920554 57.9811661,33.2620976 59.5174901,34.2467053 C60.284509,34.7390092 61.2572856,34.7561826 62.0494526,34.3440212 L63.9104165,36.2090514 C64.009866,36.3086571 64.0647348,36.4414646 64.0647348,36.5834313 C64.0647348,36.7242531 64.009866,36.8570607 63.9104165,36.9566664 L63.9104165,36.9566664 Z M57.9468732,55.8336572 C57.9468732,56.955652 57.5102097,58.0100982 56.7180426,58.8035089 C55.0868415,60.4372707 52.4348537,60.4407054 50.7990802,58.8138129 L32.3951992,39.0861668 C31.0852087,37.6825283 29.2208155,36.9761295 27.2832641,37.1490083 C24.7387275,37.3756971 22.2444872,36.470087 20.4441075,34.6657361 C18.4734062,32.6930859 17.6046516,29.8777948 18.0470306,27.1701235 L21.0453772,30.1731771 C21.5106182,30.6391484 22.1290343,30.8956044 22.7874588,30.8956044 C23.4447403,30.8956044 24.0631564,30.6391484 24.5283974,30.1731771 L28.1337291,26.5621855 C29.0939316,25.6004757 29.0939316,24.0365522 28.1337291,23.0736975 L25.1342394,20.0706439 C27.8388098,19.6287153 30.6485451,20.4976889 32.6192464,22.4714839 C34.4207692,24.2758348 35.3238168,26.7717009 35.0986264,29.3213769 C34.9271617,31.263115 35.6313102,33.1292901 37.0327486,34.4413371 L56.7294736,52.8741096 C57.5147821,53.6663753 57.9468732,54.7162419 57.9468732,55.8336572 L57.9468732,55.8336572 Z M29.0024837,60.2289003 C28.8755998,60.3651425 28.7224247,60.3868955 28.6424078,60.3891852 C28.5669633,60.3926199 28.4103589,60.3720119 28.2789026,60.2414941 L23.5407606,55.494769 C23.4093043,55.3642512 23.3921578,55.2096907 23.3933009,55.1306931 C23.394444,55.0505506 23.4161628,54.8982799 23.5521915,54.7700519 L34.6493888,44.3423692 L39.2572177,49.2814363 L29.0024837,60.2289003 Z M65.278705,34.8386149 L62.8176146,32.3736609 C62.4403922,31.9958463 61.8276916,31.9958463 61.4504692,32.3736609 L61.3132974,32.5099031 C61.1098259,32.7148389 60.7863291,32.7594897 60.5599957,32.6152332 C59.6500895,32.031338 59.4557628,31.3592859 59.9312917,30.4365024 C60.1233322,30.0621225 60.0524601,29.6053103 59.7552545,29.3076382 L51.8141514,21.3540686 C51.6758365,21.210957 50.4767265,19.9962259 48.562037,19.0711526 C45.8814717,17.7751341 43.0603054,17.6526305 40.4037452,18.7173807 C40.1019672,18.8387394 39.8813493,19.1032096 39.8161927,19.4226346 C39.749893,19.7409148 39.8493425,20.0717888 40.0791053,20.3019122 L43.2717785,23.4995976 C43.2854957,23.5133363 43.2992129,23.527075 43.3140732,23.5396688 C44.3097117,24.423526 46.9056877,27.1724133 46.9594133,29.2423793 C46.9742736,29.8045217 46.7959503,30.2498849 46.4004383,30.643728 L41.1158953,35.6091276 L38.3541701,33.0251048 C37.3905383,32.1240743 36.9070078,30.83607 37.02589,29.4919659 C37.3013767,26.3698436 36.1948576,23.3118352 33.987535,21.1010473 C31.1080706,18.2182075 26.7677268,17.2564977 22.929203,18.6521219 C22.6182803,18.7654662 22.3873745,19.0299365 22.3153593,19.3527962 C22.2433441,19.6756559 22.3416505,20.0133993 22.5759857,20.2481023 L26.7654406,24.444134 C26.9711982,24.6502147 26.9711982,24.9856683 26.7654406,25.191749 L23.1601089,28.8027405 C23.0606593,28.9034911 22.9280599,28.9584459 22.7874588,28.9584459 C22.6457147,28.9584459 22.5131153,28.9034911 22.4136657,28.8027405 L18.2242108,24.6067088 C17.9898757,24.3720058 17.6526617,24.273545 17.330308,24.3456733 C17.0068113,24.4178015 16.7427556,24.6502147 16.6307319,24.9616255 C15.2372952,28.8061752 16.1963546,33.1533328 19.075819,36.0361726 C21.2819985,38.2469604 24.3352138,39.3563615 27.4535857,39.0792974 C28.795583,38.9602286 30.0815684,39.4456631 30.9811867,40.4096627 L33.3291104,42.9261369 L22.2284838,53.3572543 C21.7426671,53.8140665 21.4694666,54.4323085 21.4580356,55.099781 C21.4477478,55.7661085 21.7015156,56.3935097 22.172472,56.8652055 L26.910614,61.6119306 C27.3724257,62.0733224 27.9828401,62.3263437 28.633263,62.3263437 L28.6732715,62.3263437 C29.3396977,62.3160397 29.9569707,62.0412654 30.4130669,61.5558309 L40.5809254,50.6999583 L49.3964987,60.1499027 C49.4045004,60.1579169 49.4125021,60.1659312 49.4193606,60.1739454 C50.5773191,61.3325768 52.1159293,61.971427 53.7528459,61.971427 C55.3897625,61.971427 56.9295158,61.3325768 58.0863312,60.1739454 C59.2442897,59.0141691 59.8821384,57.4731435 59.8821384,55.8336572 C59.8821384,54.1941708 59.2442897,52.6520004 58.0863312,51.4922241 C58.0794726,51.4853547 58.0714709,51.4773405 58.0634692,51.4693262 L48.3631379,42.3926169 L53.0338371,37.4066092 C53.0647008,37.3802766 53.0932783,37.3516543 53.1207126,37.3207422 C53.4156319,36.9910131 54.4478496,36.0590705 55.3326076,36.0590705 C55.3406093,36.0590705 55.3497541,36.0590705 55.3588989,36.0602154 C55.5989495,36.0647949 55.9693133,36.1311987 56.396832,36.6521249 C56.594588,36.8925524 56.5671537,37.2634976 56.338534,37.493621 C56.1533521,37.6745141 56.0481871,37.9218109 56.047044,38.1805566 C56.0447578,38.4393024 56.1476366,38.688889 56.3305323,38.8720718 L58.7904797,41.3370258 C59.7518253,42.2987357 61.3132974,42.2975908 62.2734999,41.3370258 L65.278705,38.3271029 C65.743946,37.8611316 66,37.2417446 66,36.5834313 C66,35.9239731 65.743946,35.3045862 65.278705,34.8386149 L65.278705,34.8386149 Z" id="Tools" fill="#003778"></path>
            </g>
        </g>
    </g>
</svg>