<?xml version="1.0" encoding="UTF-8"?>
<svg width="80px" height="80px" viewBox="0 0 80 80" version="1.1" xmlns="http://www.w3.org/2000/svg" xmlns:xlink="http://www.w3.org/1999/xlink">
    <!-- Generator: Sketch 43.2 (39069) - http://www.bohemiancoding.com/sketch -->
    <title>ill/dark/URL</title>
    <desc>Created with Sketch.</desc>
    <defs></defs>
    <g id="Symbols" stroke="none" stroke-width="1" fill="none" fill-rule="evenodd">
        <g id="ill/dark/URL">
            <g id="Group">
                <rect id="Rectangle" x="0" y="0" width="80" height="80"></rect>
                <path d="M36.6400127,42.280017 C34.0770274,38.8625522 34.3852187,34.0874892 37.3662485,31.0278453 L47.7135086,20.4906465 C49.2690869,18.8942038 51.3998694,17.9953757 53.625,17.9953757 C55.8501306,17.9953757 57.9809131,18.8942038 59.5337838,20.4878785 C62.8149649,23.851876 62.8149649,29.218124 59.5341364,32.5817598 L52.5954974,40.0913941 C52.2207137,40.4970487 52.2457395,41.1297189 52.6513941,41.5045026 C53.0570487,41.8792863 53.6897189,41.8542605 54.0645026,41.4486059 L60.9845026,33.9586059 C65.0043892,29.8377831 65.0043892,23.2322169 60.9658636,19.0917598 C59.036892,17.1121016 56.3895562,15.9953757 53.625,15.9953757 C50.8604438,15.9953757 48.213108,17.1121016 46.2837838,19.0921215 L35.9364914,29.6293535 C32.2650562,33.3975988 31.8857712,39.2741757 35.0399873,43.479983 C35.3713487,43.9218179 35.9981482,44.0113742 36.439983,43.6800127 C36.8818179,43.3486513 36.9713742,42.7218518 36.6400127,42.280017 Z" id="Shape" fill="#0B3F73" fill-rule="nonzero"></path>
                <path d="M42.2821228,37.2461698 C45.539701,40.6053231 45.539701,45.9446769 42.2821228,49.3038302 L32.2855843,59.5102785 C30.7309131,61.1057962 28.6001306,62.0046243 26.375,62.0046243 C24.1498694,62.0046243 22.0190869,61.1057962 20.4662162,59.5121215 C17.1850351,56.148124 17.1850351,50.781876 20.4658636,47.4182402 L27.1344824,40.4092933 C27.5151686,40.0091727 27.4994139,39.3762037 27.0992933,38.9955176 C26.6991727,38.6148314 26.0662037,38.6305861 25.6855176,39.0307067 L19.0255176,46.0307067 C14.9956108,50.1622169 14.9956108,56.7677831 19.0341364,60.9082402 C20.963108,62.8878984 23.6104438,64.0046243 26.375,64.0046243 C29.1395562,64.0046243 31.786892,62.8878984 33.7162162,60.9078785 L43.7144157,50.6997215 C47.7277828,46.5612304 47.7277828,39.9887696 43.7178772,35.8538302 C43.3333932,35.4573576 42.7003028,35.4476389 42.3038302,35.8321228 C41.9073576,36.2166068 41.8976389,36.8496972 42.2821228,37.2461698 Z" id="Shape" fill="#0B3F73" fill-rule="nonzero"></path>
            </g>
        </g>
    </g>
</svg>