<?xml version="1.0" encoding="UTF-8"?>
<svg width="48px" height="48px" viewBox="0 0 48 48" version="1.1" xmlns="http://www.w3.org/2000/svg" xmlns:xlink="http://www.w3.org/1999/xlink">
    <!-- Generator: Sketch 43.2 (39069) - http://www.bohemiancoding.com/sketch -->
    <title>user alt</title>
    <desc>Created with Sketch.</desc>
    <defs></defs>
    <g id="Symbols" stroke="none" stroke-width="1" fill="none" fill-rule="evenodd">
        <g id="ill/dark/user" transform="translate(-16.000000, -16.000000)" stroke="#0B3F73" stroke-width="2">
            <g id="user-alt" transform="translate(17.000000, 17.000000)">
                <circle id="Oval" cx="23" cy="23" r="23"></circle>
                <path d="M30,13 C30.1,9.2 27.1,6.1 23.3,6 L23,6 C19.2,5.9 16.1,8.9 16,12.7 L16,13 C16,13.8 16.8,17.7 16.8,17.7 C17.4,21.1 19.6,24 23,24 C26.4,24 28.6,21.2 29.2,17.7 C29.2,17.7 30,13.8 30,13 Z" id="Shape"></path>
                <path d="M6,38.5 L6,37.8 C6,34.7 8.3,32.4 11.4,31.6 L23,29.5 L34.7,31.7 C37.7,32.6 40,34.7 40,37.9 L40,38.6" id="Shape"></path>
            </g>
        </g>
    </g>
</svg>