<?xml version="1.0" encoding="UTF-8"?>
<svg width="48px" height="48px" viewBox="0 0 48 48" version="1.1" xmlns="http://www.w3.org/2000/svg" xmlns:xlink="http://www.w3.org/1999/xlink">
    <!-- Generator: Sketch 43.2 (39069) - http://www.bohemiancoding.com/sketch -->
    <title>user alt</title>
    <desc>Created with Sketch.</desc>
    <defs></defs>
    <g id="Symbols" stroke="none" stroke-width="1" fill="none" fill-rule="evenodd">
        <g id="ill/dark/user" transform="translate(-16.000000, -16.000000)" fill-rule="nonzero" fill="#0B3F73">
            <g id="user-alt" transform="translate(16.000000, 16.000000)">
                <path d="M24,48 C10.745166,48 0,37.254834 0,24 C0,10.745166 10.745166,0 24,0 C37.254834,0 48,10.745166 48,24 C48,37.254834 37.254834,48 24,48 Z M24,46 C36.1502645,46 46,36.1502645 46,24 C46,11.8497355 36.1502645,2 24,2 C11.8497355,2 2,11.8497355 2,24 C2,36.1502645 11.8497355,46 24,46 Z" id="Oval"></path>
                <path d="M31.6521659,16.4575749 C31.6299278,16.5799738 31.6177751,16.646031 31.58313,16.8329079 C31.4948363,17.3074867 31.4003585,17.7964095 31.3058912,18.2726819 C31.2491888,18.5585567 31.2050155,18.7770569 31.1856223,18.8689638 C30.466763,23.0623094 27.7550486,26 24,26 C20.2742096,26 17.5453588,23.0112586 16.8203973,18.9009441 C16.7949845,18.7770569 16.7508112,18.5585567 16.6941088,18.2726819 C16.5996415,17.7964095 16.5051637,17.3074867 16.41687,16.8329079 C16.3822249,16.646031 16.3700722,16.5799738 16.3478341,16.4575749 C16.1240602,15.2259162 16,14.4030165 16,14 L16.0003461,13.6736933 C16.1151108,9.31263457 19.6829994,5.88604852 24,6 L24.3263067,6.00034608 C28.6835675,6.11501084 32.1079826,9.67678766 31.9999445,14.0149611 C31.9969534,14.4231872 31.8732055,15.2409655 31.6521659,16.4575749 Z M30,14 C30.0854412,10.7400796 27.5359973,8.08550402 24.3,8 L23.9736933,7.99965392 C20.7400796,7.91455882 18.085504,10.4640027 18,13.7 L18,14 C18,14.2271059 18.1202523,15.0247471 18.3156201,16.1000578 C18.3373424,16.2196181 18.3492037,16.2840914 18.38313,16.4670921 C18.4698363,16.9331383 18.5628585,17.414528 18.6558912,17.8835681 C18.7116888,18.1648808 18.7550155,18.3791931 18.7847836,18.5262147 C19.3619329,21.7967275 21.3736165,24 24,24 C26.660336,24 28.6455177,21.8493865 29.2203973,18.4990559 C29.2449845,18.3791931 29.2883112,18.1648808 29.3441088,17.8835681 C29.4371415,17.414528 29.5301637,16.9331383 29.61687,16.4670921 C29.6507963,16.2840914 29.6626576,16.2196181 29.6843799,16.1000578 C29.8797477,15.0247471 30,14.2271059 30,14 Z" id="Shape"></path>
                <path d="M35.4620636,33.6727847 C38.3025089,34.5404684 40,36.4086373 40,38.9 L40,39.6 L42,39.6 L42,38.9 C42,35.4176176 39.6371218,32.8371059 35.9873479,31.7421737 L35.8847957,31.717223 L24.0034417,29.4831223 L12.2218611,31.6159946 C8.49443479,32.5751258 6,35.3287227 6,38.8 L6,39.5 L8,39.5 L8,38.8 C8,36.3102384 9.82304911,34.2977816 12.649878,33.5682773 L23.9964412,31.5168557 L35.4620636,33.6727847 Z" id="Shape"></path>
            </g>
        </g>
    </g>
</svg>