<?xml version="1.0" encoding="UTF-8"?>
<svg width="80px" height="80px" viewBox="0 0 80 80" version="1.1" xmlns="http://www.w3.org/2000/svg" xmlns:xlink="http://www.w3.org/1999/xlink">
    <!-- Generator: Sketch 43.2 (39069) - http://www.bohemiancoding.com/sketch -->
    <title>ill/dark/start</title>
    <desc>Created with Sketch.</desc>
    <defs></defs>
    <g id="Symbols" stroke="none" stroke-width="1" fill="none" fill-rule="evenodd">
        <g id="ill/dark/start">
            <g id="Group-4">
                <rect id="Rectangle-3" x="0" y="0" width="80" height="80"></rect>
                <path d="M19.4966554,26.1356881 C18.7499935,26.1356881 18.1425398,26.7411992 18.1425398,27.4854733 L18.1425398,52.5145267 C18.1425398,53.2588008 18.7499935,53.8655734 19.4966554,53.8655734 L61.5033446,53.8655734 C62.251272,53.8655734 62.8587257,53.2588008 62.8587257,52.5145267 L62.8587257,27.4854733 C62.8587257,26.7411992 62.251272,26.1356881 61.5033446,26.1356881 L19.4966554,26.1356881 Z M61.5033446,56 L19.4966554,56 C17.5679899,56 16,54.4370245 16,52.5145267 L16,27.4854733 C16,25.564237 17.5679899,24 19.4966554,24 L61.5033446,24 C63.4320101,24 65,25.564237 65,27.4854733 L65,52.5145267 C65,54.4370245 63.4320101,56 61.5033446,56 L61.5033446,56 Z" id="Fill-1" fill="#003778"></path>
                <path d="M38.6553973,33.0958279 C38.4301527,33.0958279 38.202334,33.1478671 37.9873863,33.2519455 C37.4815514,33.4972732 37.1790801,33.9705822 37.1790801,34.5169938 L37.1790801,45.4823976 C37.1790801,46.0288092 37.4815514,46.5021182 37.9873863,46.7474459 C38.4945083,46.9940126 39.0698473,46.9469295 39.5254848,46.6210649 L47.2249871,41.1383631 C47.603398,40.8682548 47.8209199,40.4531802 47.8209199,39.9996957 C47.8209199,39.5462112 47.603398,39.1298976 47.2249871,38.8610284 L39.5254848,33.3783265 C39.262914,33.1912331 38.9617299,33.0958279 38.6553973,33.0958279 M38.6541102,49 C38.0942166,49 37.5304616,48.8748581 37.0066072,48.6196182 C35.7684057,48.0199283 35,46.8168315 35,45.4823976 L35,34.5169938 C35,33.1825599 35.7684057,31.9794631 37.0066072,31.3785342 C38.2448086,30.7788443 39.7069676,30.8977911 40.8216063,31.6920084 L48.5198215,37.1747103 C49.4607002,37.8437858 50,38.8734186 50,39.9996957 C50,41.1259728 49.4607002,42.1556056 48.5198215,42.8246811 L40.8216063,48.307383 C40.1780505,48.7658236 39.4186545,48.998761 38.6541102,49" id="Fill-4" fill="#003778"></path>
            </g>
        </g>
    </g>
</svg>