<?xml version="1.0" encoding="UTF-8"?>
<svg width="80px" height="80px" viewBox="0 0 80 80" version="1.1" xmlns="http://www.w3.org/2000/svg" xmlns:xlink="http://www.w3.org/1999/xlink">
    <!-- Generator: Sketch 43.2 (39069) - http://www.bohemiancoding.com/sketch -->
    <title>ill/dark/cc-visa</title>
    <desc>Created with Sketch.</desc>
    <defs></defs>
    <g id="Symbols" stroke="none" stroke-width="1" fill="none" fill-rule="evenodd">
        <g id="ill/dark/cc-visa">
            <rect id="Rectangle" x="0" y="0" width="80" height="80"></rect>
            <g transform="translate(18.000000, 24.000000)" stroke="#0B3F73" id="Shape" stroke-width="2">
                <path d="M40.2580645,32 L4.12903226,32 C1.84863061,32 0,30.1513711 0,27.8709677 L0,4.12903226 C0,1.84863081 1.84863061,0 4.12903226,0 L40.2580645,0 C42.5384679,0 44.3870968,1.84863081 44.3870968,4.12903226 L44.3870968,27.8709677 C44.3870968,30.1513711 42.5384679,32 40.2580645,32 Z" stroke-linecap="round" stroke-linejoin="round"></path>
                <path d="M0,7.22580645 L44.3870968,7.22580645" stroke-linecap="square"></path>
                <polyline stroke-linecap="round" stroke-linejoin="round" points="5.16129032 15.483871 7.22580645 15.483871 10.3225806 23.7419355 14.4516129 15.483871"></polyline>
                <path d="M18.5806452,15.483871 L18.5806452,23.7419355" stroke-linecap="round" stroke-linejoin="round"></path>
                <path d="M26.9678404,16.530553 C26.9678404,16.530553 26.4184452,15.3899418 25.0413189,15.3746397 C22.8739802,15.3505583 21.9440722,18.4174332 24.4970783,19.2950302 C28.4527726,20.654799 27.0223666,23.8334804 25.079838,23.8511412 C23.4552456,23.8659116 22.8017816,22.8975358 22.5368909,22.5796686" stroke-linecap="round" stroke-linejoin="round"></path>
                <polyline stroke-linecap="round" stroke-linejoin="round" points="29.9354839 23.7419355 34.0645161 15.483871 35.0967742 15.483871 37.1612903 23.7419355"></polyline>
                <path d="M32,20.6451613 L36.1290323,20.6451613" stroke-linecap="round" stroke-linejoin="round"></path>
            </g>
        </g>
    </g>
</svg>