<?xml version="1.0" encoding="UTF-8"?>
<svg width="47px" height="34px" viewBox="0 0 47 34" version="1.1" xmlns="http://www.w3.org/2000/svg" xmlns:xlink="http://www.w3.org/1999/xlink">
    <!-- Generator: Sketch 43.2 (39069) - http://www.bohemiancoding.com/sketch -->
    <title>ill/dark/cc-visa</title>
    <desc>Created with Sketch.</desc>
    <defs></defs>
    <g id="Symbols" stroke="none" stroke-width="1" fill="none" fill-rule="evenodd">
        <g id="ill/dark/cc-visa" transform="translate(-17.000000, -23.000000)" fill-rule="nonzero" fill="#0B3F73">
            <g transform="translate(17.000000, 23.000000)" id="Shape">
                <path d="M41.2580645,32 C42.9861832,32 44.3870968,30.5990864 44.3870968,28.8709677 L44.3870968,5.12903226 C44.3870968,3.40091481 42.9861824,2 41.2580645,2 L5.12903226,2 C3.40091544,2 2,3.40091548 2,5.12903226 L2,28.8709677 C2,30.5990857 3.40091468,32 5.12903226,32 L41.2580645,32 Z M41.2580645,34 L5.12903226,34 C2.29634532,34 0,31.7036554 0,28.8709677 L0,5.12903226 C0,2.296346 2.29634592,0 5.12903226,0 L41.2580645,0 C44.0907521,0 46.3870968,2.29634546 46.3870968,5.12903226 L46.3870968,28.8709677 C46.3870968,31.7036559 44.0907527,34 41.2580645,34 Z"></path>
                <polygon points="0 9.22580645 46.3870968 9.22580645 46.3870968 7.22580645 0 7.22580645"></polygon>
                <path d="M10.3862515,25.0930589 C10.69284,25.9106285 11.8265167,25.9701313 12.2170078,25.1891491 L16.3460401,16.9310846 C16.5930293,16.4371061 16.392805,15.836433 15.8988265,15.5894438 C15.404848,15.3424545 14.804175,15.5426789 14.5571857,16.0366574 L11.4537092,22.2436104 L9.16213563,16.1327475 C9.01577173,15.7424438 8.64265101,15.483871 8.22580645,15.483871 L6.16129032,15.483871 C5.60900557,15.483871 5.16129032,15.9315862 5.16129032,16.483871 C5.16129032,17.0361557 5.60900557,17.483871 6.16129032,17.483871 L7.53280598,17.483871 L10.3862515,25.0930589 Z"></path>
                <path d="M18.5806452,16.483871 L18.5806452,24.7419355 C18.5806452,25.2942202 19.0283604,25.7419355 19.5806452,25.7419355 C20.1329299,25.7419355 20.5806452,25.2942202 20.5806452,24.7419355 L20.5806452,16.483871 C20.5806452,15.9315862 20.1329299,15.483871 19.5806452,15.483871 C19.0283604,15.483871 18.5806452,15.9315862 18.5806452,16.483871 Z"></path>
                <path d="M28.8687766,17.0966014 C28.7485959,16.8470917 28.5316038,16.5294656 28.1920302,16.2168318 C27.6330917,15.7022363 26.9134789,15.3842691 26.0524298,15.3747014 C22.6379839,15.3367634 21.6479631,20.029328 25.1719981,21.2407167 C26.552786,21.7153621 27.072327,22.3644219 27.006243,22.9674396 C26.9539742,23.444394 26.5215838,23.8470836 26.0707468,23.8511825 C25.4710613,23.8566347 25.0592574,23.6949969 24.729269,23.4094638 C24.6500411,23.3409093 24.5771521,23.2664578 24.5024371,23.1800255 C24.4558555,23.1261388 24.3079451,22.9428837 24.3051106,22.9394823 C23.9515455,22.5152063 23.3209806,22.4578838 22.8967046,22.811449 C22.4724286,23.1650141 22.4151061,23.7955789 22.7686713,24.219855 C22.7520504,24.19991 22.9162676,24.4033686 22.9893886,24.4879569 C23.1234356,24.6430258 23.2625117,24.7850833 23.420604,24.9218777 C24.107724,25.5164305 24.985909,25.8611283 26.0889295,25.8510998 C27.5656858,25.8376737 28.8330167,24.6573953 28.9943404,23.1853127 C29.1735105,21.5503817 28.0150792,20.1031596 25.8221578,19.3493435 C24.5039233,18.8961998 24.8277684,17.3612176 26.0302086,17.374578 C26.3671616,17.3783221 26.6241265,17.4918642 26.8373866,17.6882056 C26.9686958,17.8090974 27.0478748,17.9249971 27.0669042,17.9645046 C27.306569,18.4620779 27.9042187,18.671154 28.401792,18.4314892 C28.8993653,18.1918243 29.1084414,17.5941747 28.8687766,17.0966014 Z"></path>
                <path d="M31.8299111,25.1891491 C31.5829218,25.6831276 30.9822488,25.8833519 30.4882703,25.6363627 C29.9942918,25.3893734 29.7940674,24.7887004 30.0410567,24.2947219 L34.1700889,16.0366574 C34.339481,15.6978733 34.6857441,15.483871 35.0645161,15.483871 L36.0967742,15.483871 C36.5556418,15.483871 36.9556249,15.7961683 37.0669167,16.2413353 L39.1314328,24.4993999 C39.2653815,25.0351948 38.9396209,25.5781293 38.4038259,25.712078 C37.868031,25.8460267 37.3250965,25.520266 37.1911478,24.9844711 L35.4381819,17.9726074 L31.8299111,25.1891491 Z M35.9589433,16.9310846 L35.0645161,17.483871 L36.0967742,17.483871 L35.1266317,16.7264066 L35.4381819,17.9726074 L35.9589433,16.9310846 Z"></path>
                <path d="M33,22.6451613 L37.1290323,22.6451613 C37.681317,22.6451613 38.1290323,22.197446 38.1290323,21.6451613 C38.1290323,21.0928765 37.681317,20.6451613 37.1290323,20.6451613 L33,20.6451613 C32.4477153,20.6451613 32,21.0928765 32,21.6451613 C32,22.197446 32.4477153,22.6451613 33,22.6451613 Z"></path>
            </g>
        </g>
    </g>
</svg>